<svg id="canvas" height="auto" xmlns="http://www.w3.org/2000/svg" version="1.1" xmlns:xlink="http://www.w3.org/1999/xlink" xmlns:svgjs="http://svgjs.dev/svgjs" viewBox="0 0 900 512" width="auto" style="width: auto; height: auto;"><defs><linearGradient gradientTransform="matrix(6.123233995736766e-17,1,-1,6.123233995736766e-17,0,0)"><stop stop-color="#2dc716" offset="0"/><stop stop-color="hsv(172, 89%, 78%)" offset="1"/></linearGradient><linearGradient gradientTransform="matrix(6.123233995736766e-17,1,-1,6.123233995736766e-17,0,0)" id="SvgjsLinearGradient1069"><stop stop-color="#26a612" offset="0"/><stop stop-color="hsv(172, 89%, 65%)" offset="1"/></linearGradient><linearGradient gradientTransform="matrix(6.123233995736766e-17,1,-1,6.123233995736766e-17,0,0)"><stop stop-color="#1f870f" offset="0"/><stop stop-color="hsv(172, 89%, 53%)" offset="1"/></linearGradient><linearGradient gradientTransform="matrix(6.123233995736766e-17,1,-1,6.123233995736766e-17,0,0)"><stop stop-color="#17660b" offset="0"/><stop stop-color="hsv(172, 89%, 40%)" offset="1"/></linearGradient><linearGradient gradientTransform="matrix(6.123233995736766e-17,1,-1,6.123233995736766e-17,0,0)" id="SvgjsLinearGradient1067"><stop stop-color="#34e619" offset="0"/><stop stop-color="hsv(172, 89%, 90%)" offset="1"/></linearGradient><linearGradient gradientTransform="matrix(6.123233995736766e-17,1,-1,6.123233995736766e-17,0,0)" id="SvgjsLinearGradient1068"><stop stop-color="#104708" offset="0"/><stop stop-color="hsv(172, 89%, 28%)" offset="1"/></linearGradient><linearGradient gradientTransform="matrix(6.123233995736766e-17,1,-1,6.123233995736766e-17,0,0)"><stop stop-color="#092604" offset="0"/><stop stop-color="hsv(172, 89%, 15%)" offset="1"/></linearGradient></defs><rect width="900" height="512" fill="#f2fffcff"/><path d="M156.65491868174615 551.9613795961177C116.05906834724698 581.9438623607386 48.11969799324976 585.0128659676287 -6.546440825438481 585.3155705397C-61.21257964412669 585.6182751117714 -128.7522092654334 581.6175100080901 -171.3419142303832 553.7776070285456C-213.93161919533298 525.9377040490011 -245.160847092916 469.79878746735835 -262.08467061513716 418.27615266243305C-279.00849413735835 366.75351785750775 -291.1771646472241 294.49513327860643 -272.88485536371024 244.64179819899363C-254.59254608019637 194.78846311938082 -199.88443709463272 152.1648932963977 -152.33081491405383 119.15614218475625C-104.77719273347495 86.14739107311479 -43.78412735106784 47.750637934141345 12.436877719763118 46.58929152914493C68.65788279059404 45.427945124148515 137.031603635382 77.53178999514236 184.9952155109318 112.18806375477777C232.95882738648163 146.84433751441318 291.54630802795793 205.65483238742462 300.21854897306207 254.52693408695734C308.8907899181662 303.39903578649006 260.95593289677595 355.848266367114 237.02866118155669 405.42067395197404C213.10138946633737 454.9930815368341 197.25076901624533 521.9788968314967 156.65491868174615 551.9613795961177C116.05906834724698 581.9438623607386 48.11969799324976 585.0128659676287 -6.546440825438481 585.3155705397 " fill="none" stroke-width="4" stroke="url(#SvgjsLinearGradient1067)" opacity="0.5"/><path d="M872.8179143994346 606.8521223969798C842.0488215828027 633.5625075421569 812.8020309357923 666.5701006414217 773.4758878052892 674.8058268166558C734.149744674786 683.0415529918898 677.4883140363881 685.4740102108088 636.8610556164153 656.266479448384C596.2337971964427 627.0589486859591 558.2617170676067 542.8060068098296 529.7123372854525 499.5606422421067C501.16295750329823 456.31527767438394 473.7509957058674 429.89381919605245 465.56477692348994 396.79429204204735C457.3785581411125 363.69476488804224 470.52987363340935 338.1058613642778 480.59502459118755 300.9634793180762C490.66017554896575 263.8210972718747 500.2404982599305 207.41938139450286 525.9556826701589 173.93999976483792C551.6708670803874 140.46061813517298 595.9997899406773 119.45755762794336 634.8861310525583 100.08718954008663C673.7724721644394 80.7168214522299 723.2417343905786 57.28398008555673 759.2737293414452 57.7177912376975C795.3057242923117 58.15160238983827 818.1799896163354 85.14991130528794 851.0781007577575 102.69005645293123C883.9762118991794 120.23020160057452 924.6607607895575 130.0065680262682 956.6623961899769 162.95866212355722C988.6640315903963 195.91075622084622 1025.309418772338 255.55348766976937 1043.0879131602742 300.4026210366653C1060.8664075482104 345.2517544035613 1077.4996072601264 396.363313173445 1063.3333625175942 432.053462324933C1049.1671177750618 467.74361147642094 989.8430193914405 485.41040593358514 958.0904447050807 514.543515945593C926.3378700187207 543.6766259576008 903.5870072160665 580.1417372518026 872.8179143994346 606.8521223969798C842.0488215828027 633.5625075421569 812.8020309357923 666.5701006414217 773.4758878052892 674.8058268166558 " fill="none" stroke-width="4" stroke="url(#SvgjsLinearGradient1068)" opacity="0.5"/><path d="M623.7518402844833 455.26385956014985C584.479001461828 472.60386557861307 525.5068695169803 459.5136467624982 479.1886100471644 457.0351816840405C432.8703505773485 454.5567166055828 384.18208254949434 464.4722384342598 345.842283465588 440.39306908940364C307.5024843816817 416.3138997445475 276.94311325190955 351.20948475334546 249.14981554372656 312.56016561490355C221.35651783554357 273.91084647646176 188.34722533671163 243.66915482223837 179.08249721648997 208.49715425875266C169.8177690962683 173.32515369526695 183.43881898953597 140.70249237134354 193.56144682239665 101.52816223398943C203.68407465525732 62.35383209663533 212.4797165743759 4.964270068054134 239.818264213654 -26.548826565371996C267.1568118529321 -58.06192319879813 317.9220791017566 -68.00266192935095 357.5927326580653 -87.55041756656732C397.263386214374 -107.09817320378369 447.2285230934968 -141.2791666999484 477.84218555150613 -143.83536038867018C508.4558480095155 -146.39155407739196 514.2722445911465 -119.36939260491917 541.2747074061215 -102.88757969889801C568.2771702210964 -86.40576679287685 607.1181416002244 -77.5894662778404 639.8569624413554 -44.94448295254321C672.5957832824865 -12.299499627246036 717.6322119802622 48.75340479968631 737.7076324529083 92.98232025288513C757.7830529255544 137.21123570608395 764.1231501888675 177.09353887992037 760.309485277232 220.42900976664973C756.4958203655966 263.7644806533791 737.585250481887 313.85600394101107 714.8256429830956 352.9951455732611C692.0660354843042 392.1342872055111 663.0246791071385 437.92385354168664 623.7518402844833 455.26385956014985C584.479001461828 472.60386557861307 525.5068695169803 459.5136467624982 479.1886100471644 457.0351816840405 " fill="none" stroke-width="4" stroke="url(#SvgjsLinearGradient1069)" opacity="0.5"/></svg>