<svg id="canvas" height="auto" xmlns="http://www.w3.org/2000/svg" version="1.1" xmlns:xlink="http://www.w3.org/1999/xlink" xmlns:svgjs="http://svgjs.dev/svgjs" viewBox="0 0 900 512" width="auto" style="width: auto; height: auto;"><rect width="900" height="512" fill="#F2FFFC"/><svg width="48.01621015153937" height="48.01621015153937" stroke-width="1" stroke="#D6CC99" fill="none" x="771.2571911653837" y="251.2731282359319"><line x1="0" y1="12.004052537884842" x2="24.008105075769684" y2="12.005052537884842"/><line x1="12.004052537884842" y1="0" x2="12.005052537884842" y2="24.008105075769684"/></svg><polyline points="6.872949123382568,182.57451459697404 36.71063477365037,152.73682894670623 66.54832042391818,182.57451459697404 96.38600607418599,152.73682894670623 126.22369172445379,182.57451459697404 156.0613773747216,152.73682894670623 185.89906302498937,182.57451459697404" stroke-width="1" stroke="#D6CC99" fill="none"/><polyline points="429.9916687011719,457.2326249348841 466.84435822870114,420.37993540735476 503.69704775623046,457.2326249348841 540.5497372837598,420.37993540735476 577.402426811289,457.2326249348841 614.2551163388184,420.37993540735476 651.1078058663477,457.2326249348841" stroke-width="1" stroke="#D6CC99" fill="none"/><svg width="119.97159387681253" height="119.97159387681253" stroke-width="1" stroke="#D6CC99" fill="none" x="420.3176868036395" y="498.5290831837322"><line x1="0" y1="29.992898469203134" x2="59.98579693840627" y2="29.993898469203135"/><line x1="29.992898469203134" y1="0" x2="29.993898469203135" y2="59.98579693840627"/></svg><circle r="23.06765414787254" cx="23.06765414787254" cy="23.06765414787254" transform="matrix(1,0,0,1,253.85454391006306,233.29737726861518)" stroke-width="1" stroke="#D6CC99" fill="none"/><svg width="105.5139565712834" height="105.5139565712834" stroke-width="1" stroke="#D6CC99" fill="none" x="55.233226236111115" y="167.3216581603382"><line x1="0" y1="26.37848914282085" x2="52.7569782856417" y2="26.37948914282085"/><line x1="26.37848914282085" y1="0" x2="26.37948914282085" y2="52.7569782856417"/></svg><polyline points="424.4499206542969,124.15473945328742 451.8850475431821,96.71961256440218 479.32017443206735,124.15473945328742 506.7553013209526,96.71961256440218 534.1904282098378,124.15473945328742 561.6255550987231,96.71961256440218 589.0606819876083,124.15473945328742" stroke-width="1" stroke="#D6CC99" fill="none"/><svg width="67.46583793591361" height="67.46583793591361" stroke-width="1" stroke="#D6CC99" fill="none" x="82.13166989181585" y="214.11891885110347"><line x1="0" y1="16.866459483978403" x2="33.732918967956806" y2="16.867459483978404"/><line x1="16.866459483978403" y1="0" x2="16.867459483978404" y2="33.732918967956806"/></svg><svg width="94.74724830277519" height="94.74724830277519" stroke-width="1" stroke="#D6CC99" fill="none" x="18.59840965451283" y="510.7114604408401"><line x1="0" y1="23.686812075693798" x2="47.373624151387595" y2="23.6878120756938"/><line x1="23.686812075693798" y1="0" x2="23.6878120756938" y2="47.373624151387595"/></svg><circle r="28.283372953771984" cx="28.283372953771984" cy="28.283372953771984" transform="matrix(1,0,0,1,519.6774400114382,346.69649355814477)" stroke-width="1" stroke="#D6CC99" fill="none"/><svg width="97.06573719203837" height="97.06573719203837" stroke-width="1" stroke="#D6CC99" fill="none" x="859.1641098578807" y="401.08622181596496"><line x1="0" y1="24.266434298009592" x2="48.532868596019185" y2="24.267434298009594"/><line x1="24.266434298009592" y1="0" x2="24.267434298009594" y2="48.532868596019185"/></svg><svg width="98.59142822923273" height="98.59142822923273" stroke-width="1" stroke="#D6CC99" fill="none" x="344.5064017668575" y="27.738433053485124"><line x1="0" y1="24.647857057308183" x2="49.295714114616366" y2="24.648857057308184"/><line x1="24.647857057308183" y1="0" x2="24.648857057308184" y2="49.295714114616366"/></svg><svg width="114.24497531134271" height="114.24497531134271" stroke-width="1" stroke="#D6CC99" fill="none" x="293.0640187045504" y="427.75068521584774"><line x1="0" y1="28.56124382783568" x2="57.12248765567136" y2="28.56224382783568"/><line x1="28.56124382783568" y1="0" x2="28.56224382783568" y2="57.12248765567136"/></svg><circle r="11.895005123780729" cx="11.895005123780729" cy="11.895005123780729" transform="matrix(1,0,0,1,885.4372141730461,131.2426008619209)" stroke-width="1" stroke="#D6CC99" fill="none"/><circle r="13.470240529032628" cx="13.470240529032628" cy="13.470240529032628" transform="matrix(1,0,0,1,521.4674359774772,134.79294310943123)" stroke-width="1" stroke="#D6CC99" fill="none"/><svg width="108.34376419960408" height="108.34376419960408" stroke-width="1" stroke="#D6CC99" fill="none" x="133.27368125993345" y="146.38014886714197"><line x1="0" y1="27.08594104990102" x2="54.17188209980204" y2="27.08694104990102"/><line x1="27.08594104990102" y1="0" x2="27.08694104990102" y2="54.17188209980204"/></svg><svg width="66.28151265434462" height="66.28151265434462" stroke-width="1" stroke="#D6CC99" fill="none" x="621.1692383872273" y="413.814118231585"><line x1="0" y1="16.570378163586156" x2="33.14075632717231" y2="16.571378163586157"/><line x1="16.570378163586156" y1="0" x2="16.571378163586157" y2="33.14075632717231"/></svg><circle r="29.73916422167123" cx="29.73916422167123" cy="29.73916422167123" transform="matrix(1,0,0,1,669.635236968074,435.7674013540023)" stroke-width="1" stroke="#D6CC99" fill="none"/><svg width="53.347550720178816" height="53.347550720178816" stroke-width="1" stroke="#D6CC99" fill="none" x="613.5781771564448" y="407.216692850449"><line x1="0" y1="13.336887680044704" x2="26.673775360089408" y2="13.337887680044703"/><line x1="13.336887680044704" y1="0" x2="13.337887680044703" y2="26.673775360089408"/></svg><circle r="21.682321138759345" cx="21.682321138759345" cy="21.682321138759345" transform="matrix(1,0,0,1,284.18198232666145,227.65427621887554)" stroke-width="1" stroke="#D6CC99" fill="none"/></svg>